M48
;Layer_Color=6321
;FILE_FORMAT=2:5
INCH,LZ
;TYPE=PLATED
T1F00S00C0.01181
;TYPE=NON_PLATED
T2F00S00C0.12205
%
T01
X0048031Y0015748
X0058268
X006811
X0077953
X0088189
X0108268
X011811
X0127953
X0138189
X0148031
X0120079Y0085827
Y0093701
Y0105512
Y0109449
Y0113386
Y0117323
X0098425Y0079921
X0076772Y0085827
Y0089764
Y0093701
Y0097638
T02
X0177165Y0019685
X0019685
Y0177165
X0177165
M30
