G04 Layer_Color=20142*
%FSLAX25Y25*%
%MOIN*%
G70*
G01*
G75*
%ADD19R,0.02769X0.03753*%
%ADD20O,0.06706X0.12611*%
%ADD21R,0.04343X0.03556*%
%ADD22R,0.06706X0.03556*%
%ADD23R,0.06706X0.04737*%
%ADD24R,0.03556X0.06706*%
%ADD25C,0.13005*%
D19*
X69587Y109252D02*
D03*
X72146D02*
D03*
D20*
X108189Y8268D02*
D03*
X148189D02*
D03*
X138189D02*
D03*
X128189D02*
D03*
X48189D02*
D03*
X118189D02*
D03*
X58189D02*
D03*
X68189D02*
D03*
X78189D02*
D03*
X98189Y8268D02*
D03*
X88189D02*
D03*
D21*
X125984Y117520D02*
D03*
Y122638D02*
D03*
D22*
X115748Y85827D02*
D03*
Y89764D02*
D03*
Y93701D02*
D03*
Y97638D02*
D03*
Y101575D02*
D03*
Y105512D02*
D03*
Y109449D02*
D03*
Y113386D02*
D03*
Y117323D02*
D03*
Y121260D02*
D03*
Y125197D02*
D03*
Y129134D02*
D03*
X81102D02*
D03*
Y125197D02*
D03*
Y121260D02*
D03*
Y117323D02*
D03*
Y113386D02*
D03*
Y109449D02*
D03*
Y105512D02*
D03*
Y101575D02*
D03*
Y97638D02*
D03*
Y93701D02*
D03*
Y89764D02*
D03*
Y85827D02*
D03*
D23*
X115748Y133661D02*
D03*
X81102D02*
D03*
D24*
X90551Y84252D02*
D03*
X94488D02*
D03*
X98425D02*
D03*
X102362D02*
D03*
X106299D02*
D03*
D25*
X19685Y19685D02*
D03*
X177165D02*
D03*
Y177165D02*
D03*
X19685D02*
D03*
M02*
